<?xml version="1.0" standalone="no"?>
<!DOCTYPE svg PUBLIC "-//W3C//DTD SVG 20010904//EN"
 "http://www.w3.org/TR/2001/REC-SVG-20010904/DTD/svg10.dtd">
<svg version="1.0" xmlns="http://www.w3.org/2000/svg"
 width="300.000000pt" height="99.000000pt" viewBox="0 0 300.000000 99.000000"
 preserveAspectRatio="xMidYMid meet">
<metadata>
Created by potrace 1.10, written by Peter Selinger 2001-2011
</metadata>
<g transform="translate(0.000000,99.000000) scale(0.100000,-0.100000)"
fill="#000000" stroke="none">
<path d="M243 831 c-54 -25 -83 -71 -83 -131 0 -62 25 -97 118 -168 111 -85
136 -144 89 -213 -41 -61 -145 -62 -168 -2 -15 41 -37 27 -50 -32 -15 -69 -9
-78 76 -100 70 -18 78 -18 127 -5 83 24 138 101 138 196 0 76 -28 133 -92 187
-120 100 -128 109 -128 138 0 56 90 81 137 37 28 -26 37 -18 48 40 9 51 -9 64
-97 69 -58 3 -82 0 -115 -16z m171 -36 c6 -17 -9 -21 -19 -5 -3 5 -24 7 -48 4
-23 -4 -50 -6 -61 -6 -10 1 -16 -2 -12 -5 3 -3 -3 -12 -13 -19 -22 -16 -32
-69 -19 -103 10 -27 41 -57 105 -102 83 -58 128 -158 104 -231 -15 -44 -58
-94 -95 -107 -60 -24 -160 -6 -169 30 -6 23 -3 24 30 2 32 -21 102 -23 127 -3
62 47 76 71 76 127 0 70 -21 105 -96 164 -113 89 -140 127 -129 179 6 28 48
74 75 82 8 3 43 6 76 7 47 1 63 -2 68 -14z"/>
<path d="M590 826 c0 -8 5 -18 10 -21 15 -9 13 -578 -1 -592 -21 -21 2 -33 61
-33 59 0 82 12 61 33 -7 7 -11 65 -11 164 0 133 2 154 16 160 33 12 50 -15
100 -166 28 -84 56 -162 62 -172 9 -14 24 -19 60 -19 67 0 78 10 48 43 -14 15
-41 77 -66 151 -23 69 -50 136 -61 150 -25 31 -24 32 9 39 88 18 137 126 96
213 -27 57 -53 64 -229 64 -128 0 -155 -2 -155 -14z m335 -46 c20 -19 25 -33
25 -69 -1 -54 -13 -73 -77 -115 -36 -24 -47 -38 -46 -54 3 -28 -2 -28 -39 3
-36 30 -69 32 -93 5 -16 -18 -19 -40 -19 -170 -1 -133 -6 -173 -21 -159 -2 3
-6 130 -9 282 -3 230 -2 280 10 291 11 11 40 14 129 12 105 -3 118 -5 140 -26z
m-54 -344 c16 -37 29 -78 29 -90 0 -12 4 -26 8 -32 13 -14 43 -94 35 -94 -14
0 -43 34 -43 51 0 10 -4 21 -10 24 -5 3 -10 16 -10 29 0 12 -4 26 -10 32 -5 5
-10 24 -12 42 -1 17 -5 32 -9 32 -4 0 -11 18 -17 41 -16 62 6 43 39 -35z"/>
<path d="M706 761 c-20 -21 -28 -39 -28 -65 0 -73 45 -104 132 -91 45 7 74 28
96 70 16 31 9 48 -35 88 -25 22 -40 27 -84 27 -46 0 -57 -4 -81 -29z m159 -31
c24 -26 13 -65 -22 -78 -50 -19 -81 -22 -107 -12 -22 8 -26 15 -26 53 0 24 3
47 7 50 3 4 34 7 68 7 49 0 66 -4 80 -20z"/>
<path d="M763 714 c-15 -7 -18 -54 -3 -54 6 0 10 7 10 15 0 11 11 15 41 15 28
0 39 4 37 13 -5 12 -63 20 -85 11z"/>
<path d="M1080 780 c0 -61 7 -72 30 -45 17 21 86 20 94 -1 3 -9 6 -124 6 -257
-1 -195 -3 -246 -15 -261 -22 -29 -10 -36 60 -36 70 0 82 7 60 36 -12 15 -14
65 -15 251 0 127 4 243 10 257 8 22 16 26 48 26 21 0 43 -5 50 -12 20 -20 34
5 30 53 l-3 44 -177 3 -178 2 0 -60z m300 19 c0 -5 -11 -9 -25 -9 -14 0 -38
-11 -53 -25 l-27 -25 -5 -255 c-3 -146 -9 -256 -14 -258 -11 -2 -13 37 -15
306 l-1 199 -30 29 c-18 18 -39 30 -52 29 -35 -3 -45 1 -25 9 27 10 247 11
247 0z"/>
<path d="M1470 750 c0 -46 -2 -51 -17 -45 -10 5 -33 10 -51 13 -62 8 -62 6
-62 -274 0 -158 4 -255 10 -259 6 -3 10 -13 10 -21 0 -13 -12 -15 -69 -12 -66
3 -69 2 -53 -15 13 -14 29 -17 81 -15 64 3 66 4 62 28 -2 14 -6 141 -8 283
l-4 257 40 0 c22 0 43 -4 46 -10 3 -5 15 -10 26 -10 16 0 19 7 19 54 0 35 -5
58 -15 66 -13 11 -15 6 -15 -40z"/>
<path d="M481 738 c-18 -72 -18 -71 -55 -43 -18 14 -46 25 -63 25 -38 0 -68
-22 -60 -44 6 -15 9 -14 28 5 26 26 62 19 101 -18 21 -20 30 -24 41 -15 19 16
43 120 31 132 -7 7 -15 -8 -23 -42z"/>
<path d="M1021 735 c16 -56 -5 -112 -61 -165 -45 -44 -47 -47 -34 -70 7 -14
30 -77 50 -140 19 -63 47 -134 60 -158 30 -50 23 -56 -56 -50 -27 1 -50 0 -50
-4 0 -17 45 -29 98 -26 68 4 75 18 39 75 -14 21 -46 101 -72 179 l-47 140 40
40 c49 49 68 106 52 164 -6 21 -15 42 -19 45 -6 3 -5 -10 0 -30z"/>
<path d="M1129 704 c-10 -13 -10 -17 1 -24 18 -11 50 6 50 25 0 20 -34 19 -51
-1z"/>
<path d="M1725 650 l-35 -36 0 -120 0 -120 33 -32 c31 -30 38 -32 102 -32 50
0 73 -5 87 -17 17 -16 20 -15 53 17 31 30 33 35 20 50 -12 13 -15 44 -15 136
l0 120 -34 33 c-32 31 -40 34 -106 35 -68 1 -71 0 -105 -34z m184 -24 c20 -22
22 -32 20 -141 -1 -85 2 -119 11 -125 7 -5 10 -15 6 -25 -5 -15 -9 -15 -22 -4
-11 9 -38 13 -81 10 -56 -2 -68 0 -89 20 -23 21 -24 29 -24 133 0 99 2 112 22
133 17 19 32 23 78 23 47 0 60 -4 79 -24z"/>
<path d="M1781 606 c-8 -9 -11 -50 -9 -117 l3 -104 55 0 55 0 3 104 c2 67 -1
108 -9 117 -15 18 -83 18 -98 0z m76 -111 c0 -83 -1 -85 -23 -85 -23 0 -24 2
-24 85 0 83 1 85 24 85 22 0 23 -2 23 -85z"/>
<path d="M2000 633 c0 -29 5 -53 10 -53 6 0 10 -41 10 -103 l0 -103 33 -32
c31 -30 38 -32 103 -32 66 0 72 2 102 33 32 33 32 34 32 135 0 84 3 102 15
102 11 0 15 13 15 53 l0 52 -77 -2 -78 -1 -3 -46 c-2 -28 1 -46 7 -46 7 0 11
-34 11 -90 0 -89 0 -90 -25 -90 -25 0 -25 1 -25 90 0 56 4 90 11 90 6 0 9 18
7 46 l-3 46 -73 1 -72 2 0 -52z m120 2 c0 -8 -5 -15 -10 -15 -7 0 -10 -42 -8
-117 l3 -118 50 0 50 0 3 118 c2 75 -1 117 -8 117 -5 0 -10 7 -10 15 0 11 12
15 50 15 43 0 50 -3 50 -20 0 -13 -5 -18 -15 -14 -13 5 -15 -11 -15 -112 0
-107 -2 -120 -22 -141 -31 -33 -131 -33 -165 -1 -22 20 -23 29 -23 140 0 77
-4 117 -10 113 -5 -3 -10 3 -10 14 0 18 6 21 45 21 33 0 45 -4 45 -15z"/>
<path d="M2350 633 c0 -40 4 -53 15 -53 12 0 15 -16 15 -85 0 -69 -3 -85 -15
-85 -11 0 -15 -12 -15 -50 l0 -50 85 0 85 0 0 50 c0 38 -4 50 -15 50 -12 0
-15 16 -15 85 0 70 3 85 16 85 12 0 14 10 12 51 l-3 52 -83 1 -82 1 0 -52z
m130 -4 c0 -11 -4 -17 -10 -14 -6 4 -10 -37 -10 -114 0 -74 4 -121 10 -121 6
0 10 -9 10 -20 0 -17 -7 -20 -50 -20 -44 0 -50 2 -50 21 0 15 5 19 15 15 13
-5 15 13 15 119 0 104 -2 125 -15 125 -8 0 -15 7 -15 15 0 11 12 15 50 15 44
0 50 -3 50 -21z"/>
<path d="M2560 628 l0 -58 44 0 c24 0 46 5 48 11 2 6 12 10 22 8 15 -3 6 -20
-53 -89 -68 -81 -71 -87 -71 -137 l0 -53 150 0 150 0 0 75 c0 83 2 81 -72 69
-32 -6 -38 -11 -38 -30 0 -20 -5 -24 -31 -24 l-31 0 48 58 c122 145 115 133
112 180 l-3 44 -138 1 -137 2 0 -57z m240 -4 c0 -18 -27 -59 -90 -134 -49 -59
-90 -110 -90 -111 0 -2 35 -3 77 -2 77 2 78 2 75 27 -3 21 1 26 17 26 18 0 21
-6 21 -45 l0 -45 -115 0 -115 0 0 28 c0 20 24 57 91 137 l91 110 -58 3 c-35 2
-60 -1 -62 -7 -2 -6 -15 -11 -28 -11 -19 0 -24 5 -24 25 l0 25 105 0 105 0 0
-26z"/>
<path d="M506 483 c28 -54 32 -144 10 -197 -20 -48 -75 -107 -121 -127 -49
-23 -127 -24 -186 -4 l-44 15 27 -24 c29 -26 102 -41 151 -30 124 26 210 129
210 249 0 61 -24 127 -56 153 -8 7 -5 -7 9 -35z"/>
<path d="M744 476 c-8 -32 1 -271 11 -303 7 -22 5 -23 -61 -23 -64 -1 -67 -2
-49 -16 14 -10 38 -14 80 -12 58 3 60 4 56 28 -1 14 -5 95 -8 180 -4 150 -15
202 -29 146z"/>
</g>
</svg>
