<?xml version="1.0" standalone="no"?>
<!DOCTYPE svg PUBLIC "-//W3C//DTD SVG 20010904//EN"
 "http://www.w3.org/TR/2001/REC-SVG-20010904/DTD/svg10.dtd">
<svg version="1.0" xmlns="http://www.w3.org/2000/svg"
 width="2624.000000pt" height="1774.000000pt" viewBox="0 0 2624.000000 1774.000000"
 preserveAspectRatio="xMidYMid meet">

<g transform="translate(0.000000,1774.000000) scale(0.100000,-0.100000)"
fill="#000000" stroke="none">
<path d="M0 8870 l0 -8870 13120 0 13120 0 0 8870 0 8870 -13120 0 -13120 0 0
-8870z m9954 7499 c3 -17 6 -303 6 -635 l0 -604 -40 0 c-38 0 -41 2 -62 48
-146 326 -250 492 -397 641 -281 285 -703 441 -1189 441 -261 0 -460 -35 -619
-110 -162 -76 -254 -171 -295 -303 -46 -154 -6 -325 100 -418 85 -75 250 -144
437 -183 39 -8 340 -62 670 -121 712 -125 838 -156 1018 -246 379 -191 569
-499 568 -920 -1 -371 -229 -697 -649 -924 -28 -15 -54 -26 -57 -23 -3 2 27
31 65 64 161 135 288 328 332 504 27 109 21 276 -12 385 -88 285 -343 487
-735 580 -55 14 -345 68 -645 120 -300 53 -588 105 -640 117 -429 92 -682 279
-745 551 -20 87 -20 265 -1 339 93 348 389 583 856 679 102 21 142 23 350 23
252 0 349 -10 544 -59 144 -37 260 -78 425 -151 160 -71 204 -78 277 -45 58
27 183 115 287 205 103 88 140 99 151 45z m9879 -521 c4 -281 7 -590 7 -685
l0 -174 -47 3 -46 3 -114 220 c-218 421 -315 575 -461 727 -225 234 -402 298
-825 298 l-160 0 7 -1347 c4 -845 11 -1374 17 -1422 37 -262 178 -355 659
-436 137 -23 132 -20 128 -68 l-3 -42 -775 -2 -775 -2 48 25 c96 50 158 138
191 269 37 145 38 206 30 1687 l-7 1448 264 3 c145 1 622 3 1060 5 l796 2 6
-512z m-2229 -960 c7 -1445 5 -1550 -25 -1661 -28 -105 -109 -204 -201 -245
-132 -58 -261 -71 -700 -72 l-338 0 0 44 c0 50 -14 44 160 76 446 82 579 173
620 422 12 74 12 467 3 1803 l-6 977 -231 -5 c-213 -4 -238 -7 -321 -31 -213
-64 -374 -189 -539 -420 -93 -130 -177 -278 -312 -548 l-129 -258 -47 0 -48 0
0 685 0 685 258 3 c141 1 615 3 1053 5 l796 2 7 -1462z m-4169 1413 c424 -95
731 -315 851 -611 60 -147 67 -338 19 -504 -44 -152 -109 -259 -226 -372 -133
-127 -287 -213 -489 -273 -120 -35 -320 -71 -399 -71 -46 0 -52 -2 -41 -15 18
-22 222 -119 312 -148 42 -14 103 -31 136 -37 l59 -12 303 -531 c167 -293 322
-559 344 -592 58 -87 133 -163 196 -199 l55 -31 -330 -3 c-318 -2 -330 -2
-343 17 -8 11 -211 361 -451 778 l-438 758 -336 3 -337 2 6 -477 c7 -616 16
-666 132 -775 88 -82 203 -128 475 -189 l147 -33 0 -48 0 -48 -747 0 -748 0
50 29 c107 61 162 148 199 310 21 96 21 102 18 1281 -2 661 -7 1240 -13 1310
-21 268 -83 401 -220 469 l-62 31 264 3 c145 1 545 2 889 2 610 -1 627 -2 725
-24z m-2051 -9 c229 -63 321 -197 346 -502 5 -63 11 -650 12 -1305 l3 -1190
-23 -79 c-27 -98 -59 -153 -114 -201 -125 -108 -267 -132 -791 -134 l-288 -2
3 47 3 47 190 47 c105 26 209 55 233 64 190 70 285 181 312 364 11 77 11 786
0 1692 -6 535 -9 633 -23 683 -59 204 -180 282 -582 371 l-150 33 -3 47 -3 47
398 -3 c372 -4 403 -6 477 -26z m2505 2 c380 -56 650 -172 828 -357 160 -166
233 -388 204 -618 -41 -322 -233 -523 -646 -677 -154 -58 -447 -133 -462 -118
-3 2 32 24 78 47 168 84 302 192 396 319 195 263 225 618 78 917 -54 110 -163
231 -280 312 -61 43 -222 126 -345 179 -24 10 -24 11 9 11 18 1 81 -6 140 -15z
m-6509 -67 c0 -2 -40 -33 -88 -70 -161 -120 -275 -266 -327 -418 -36 -108 -46
-299 -21 -419 56 -271 274 -480 622 -596 140 -47 191 -57 844 -174 311 -55
617 -113 681 -129 349 -87 546 -245 623 -501 26 -83 31 -259 12 -350 -32 -153
-145 -331 -282 -441 -276 -225 -622 -339 -1029 -339 -346 0 -643 65 -1040 230
-82 34 -166 65 -186 67 -74 10 -229 -81 -380 -225 -78 -74 -92 -83 -121 -80
l-33 3 -3 658 -2 658 42 -3 42 -3 38 -95 c111 -275 246 -497 391 -644 107
-108 174 -154 352 -241 155 -76 324 -135 495 -171 167 -35 472 -44 656 -20
547 72 838 312 774 638 -29 150 -115 255 -272 332 -51 26 -129 55 -173 66 -44
11 -334 65 -644 120 -311 56 -607 110 -658 121 -588 127 -947 425 -1039 859
-26 125 -24 328 4 444 70 283 251 491 575 662 107 56 147 72 147 61z m7156
-2382 c279 -486 343 -586 425 -666 73 -72 184 -129 313 -160 l96 -23 0 -49 0
-49 -302 4 c-298 4 -304 4 -372 30 -122 47 -219 128 -305 257 -20 29 -162 277
-317 550 l-280 496 160 7 c98 4 192 14 241 26 44 10 83 16 87 13 3 -3 117
-199 254 -436z m3056 -3100 c152 -32 268 -96 389 -215 124 -123 190 -235 225
-386 20 -86 20 -259 0 -354 -50 -238 -245 -466 -478 -559 -85 -34 -216 -61
-297 -61 -72 0 -199 23 -276 50 -195 68 -385 252 -464 451 -38 97 -52 176 -52
304 1 227 78 403 248 566 119 113 225 171 375 204 83 18 246 18 330 0z
m-12766 -345 c673 -54 1251 -267 1704 -628 126 -100 347 -322 447 -449 455
-573 701 -1210 790 -2038 21 -200 24 -765 5 -960 -56 -568 -182 -1034 -398
-1466 -381 -764 -936 -1255 -1709 -1515 -148 -50 -160 -55 -157 -76 16 -109
137 -739 153 -797 48 -177 163 -331 292 -391 130 -61 305 -76 422 -36 132 46
299 149 457 282 48 41 90 74 94 74 3 0 64 -52 135 -116 l129 -116 -41 -49
c-87 -104 -338 -348 -429 -415 -170 -127 -405 -251 -575 -302 -401 -120 -860
-57 -1188 165 -141 95 -295 260 -389 418 -141 237 -220 472 -308 915 -28 140
-53 256 -55 258 -2 3 -71 11 -152 18 -1153 109 -1988 672 -2488 1676 -236 474
-362 965 -406 1577 -13 182 -7 737 10 886 67 584 206 1053 444 1490 292 537
683 949 1155 1214 358 202 837 341 1303 380 151 12 605 13 755 1z m5539 -2010
c290 -63 513 -206 603 -388 l37 -76 5 -1825 c5 -1703 6 -1830 23 -1886 66
-224 210 -365 441 -427 113 -30 309 -35 423 -10 173 39 330 123 486 262 199
176 294 372 317 647 6 79 10 765 10 1860 l0 1733 743 -2 742 -3 5 -2020 c5
-1936 6 -2022 24 -2075 43 -128 93 -202 175 -261 112 -81 304 -110 461 -70
113 28 263 104 378 191 52 38 97 70 101 70 4 0 46 -51 94 -114 l87 -114 -73
-64 c-315 -279 -676 -487 -1012 -584 -354 -102 -734 -104 -1007 -4 -201 74
-361 200 -487 386 -43 65 -131 242 -131 265 0 7 -37 -23 -82 -67 -127 -125
-241 -218 -373 -307 -334 -223 -651 -317 -1177 -348 -295 -17 -547 7 -748 72
-106 34 -279 123 -366 187 -293 216 -455 502 -527 927 -6 38 -12 717 -16 1832
l-6 1771 -132 -43 c-275 -91 -485 -219 -658 -403 l-40 -42 -132 151 c-73 84
-133 156 -133 160 0 17 190 174 304 251 280 188 662 331 1026 383 146 22 486
13 615 -15z m7123 15 c360 -51 565 -217 659 -533 16 -52 18 -197 23 -1822 7
-1946 2 -1823 69 -1962 55 -117 139 -190 264 -230 47 -16 91 -21 182 -22 107
-1 130 2 207 28 103 33 231 104 341 188 43 33 82 58 87 56 12 -4 170 -215 170
-227 0 -11 -157 -147 -265 -228 -252 -189 -519 -332 -767 -412 -394 -125 -860
-111 -1153 37 -105 52 -165 93 -239 162 -195 183 -317 467 -368 857 -8 62 -13
623 -17 1870 l-6 1781 -140 -47 c-248 -83 -434 -191 -595 -347 l-95 -92 -132
152 -132 151 57 58 c79 81 241 202 370 275 292 167 646 279 1002 315 98 10
385 5 478 -8z m7242 -327 l-1 -203 -1495 -2085 -1495 -2085 53 -3 c134 -8
1271 6 1363 17 360 43 522 121 634 306 83 136 108 230 237 878 l97 487 193 0
c193 0 194 0 199 -22 18 -78 265 -1647 265 -1681 0 -51 -25 -157 -45 -197 -38
-73 -107 -130 -200 -166 -49 -18 -114 -19 -2262 -22 l-2213 -3 0 204 0 203
1529 2085 1529 2084 -431 3 c-1125 8 -1364 -55 -1528 -404 -57 -119 -79 -210
-192 -769 l-104 -510 -196 -3 c-108 -1 -197 1 -197 5 0 5 -59 375 -131 823
-142 885 -145 920 -102 1034 32 86 121 168 215 198 67 21 393 25 2316 26
l1962 2 0 -202z"/>
<path d="M12320 15395 l0 -815 298 0 c509 0 680 22 857 110 273 135 406 427
374 826 -32 412 -237 620 -669 679 -76 11 -211 15 -482 15 l-378 0 0 -815z"/>
<path d="M4338 9940 c-266 -24 -513 -128 -715 -303 -59 -51 -196 -196 -256
-272 -129 -162 -294 -456 -380 -680 -163 -420 -252 -887 -288 -1495 -13 -230
-7 -810 11 -1005 26 -296 93 -725 112 -725 5 0 36 22 71 48 148 115 273 189
447 262 336 142 729 165 1031 62 281 -97 500 -298 668 -613 133 -250 211 -521
307 -1072 l27 -158 49 48 c275 268 512 728 647 1256 122 475 174 909 175 1472
1 777 -99 1380 -325 1955 -236 602 -545 971 -949 1133 -200 80 -400 107 -632
87z"/>
<path d="M3237 5205 c-63 -17 -184 -75 -253 -121 -49 -33 -55 -40 -49 -63 19
-74 105 -285 175 -426 193 -393 432 -660 740 -828 64 -34 259 -112 266 -105 5
6 -183 1034 -202 1103 -57 212 -225 390 -415 440 -66 18 -197 18 -262 0z"/>
</g>
</svg>
